name C:\Users\u0150099\Documents\master_thesis\3dpredictsim\Results\debug\Fal_s1_mtp_sc_MTPm_k1_d01_PF_Natali2010_ls146_ig21.mot
datacolumns 126
datarows 4
range 0.55128465 0.58436172
endheader
time	pelvis_tilt	pelvis_list	pelvis_rotation	pelvis_tx	pelvis_ty	pelvis_tz	hip_flexion_l	hip_adduction_l	hip_rotation_l	hip_flexion_r	hip_adduction_r	hip_rotation_r	knee_angle_l	knee_angle_r	ankle_angle_l	ankle_angle_r	subtalar_angle_l	subtalar_angle_r	mtp_angle_l	mtp_angle_r	lumbar_extension	lumbar_bending	lumbar_rotation	arm_flex_l	arm_add_l	arm_rot_l	arm_flex_r	arm_add_r	arm_rot_r	elbow_flex_l	elbow_flex_r	pro_sup_l	pro_sup_r	glut_med1_l/activation	glut_med2_l/activation	glut_med3_l/activation	glut_min1_l/activation	glut_min2_l/activation	glut_min3_l/activation	semimem_l/activation	semiten_l/activation	bifemlh_l/activation	bifemsh_l/activation	sar_l/activation	add_long_l/activation	add_brev_l/activation	add_mag1_l/activation	add_mag2_l/activation	add_mag3_l/activation	tfl_l/activation	pect_l/activation	grac_l/activation	glut_max1_l/activation	glut_max2_l/activation	glut_max3_l/activation	iliacus_l/activation	psoas_l/activation	quad_fem_l/activation	gem_l/activation	peri_l/activation	rect_fem_l/activation	vas_med_l/activation	vas_int_l/activation	vas_lat_l/activation	med_gas_l/activation	lat_gas_l/activation	soleus_l/activation	tib_post_l/activation	flex_dig_l/activation	flex_hal_l/activation	tib_ant_l/activation	per_brev_l/activation	per_long_l/activation	per_tert_l/activation	ext_dig_l/activation	ext_hal_l/activation	ercspn_l/activation	intobl_l/activation	extobl_l/activation	glut_med1_r/activation	glut_med2_r/activation	glut_med3_r/activation	glut_min1_r/activation	glut_min2_r/activation	glut_min3_r/activation	semimem_r/activation	semiten_r/activation	bifemlh_r/activation	bifemsh_r/activation	sar_r/activation	add_long_r/activation	add_brev_r/activation	add_mag1_r/activation	add_mag2_r/activation	add_mag3_r/activation	tfl_r/activation	pect_r/activation	grac_r/activation	glut_max1_r/activation	glut_max2_r/activation	glut_max3_r/activation	iliacus_r/activation	psoas_r/activation	quad_fem_r/activation	gem_r/activation	peri_r/activation	rect_fem_r/activation	vas_med_r/activation	vas_int_r/activation	vas_lat_r/activation	med_gas_r/activation	lat_gas_r/activation	soleus_r/activation	tib_post_r/activation	flex_dig_r/activation	flex_hal_r/activation	tib_ant_r/activation	per_brev_r/activation	per_long_r/activation	per_tert_r/activation	ext_dig_r/activation	ext_hal_r/activation	ercspn_r/activation	intobl_r/activation	extobl_r/activation	
          0.55128465	         -2.92992693	          1.95112546	         -5.07227222	          0.73320858	          0.91258231	          0.00435783	         30.63052789	          2.80278788	         -2.73943670	        -18.51778480	         -0.38964372	          7.37221756	        -12.36739536	         -5.03365575	          6.30347513	         -0.77560234	         -2.38423053	          8.17232662	          4.07264899	         22.10141440	         -3.41953056	         -0.79408705	          1.78181235	         -7.93026101	        -13.53855519	          5.56475910	          7.68592815	        -13.68455191	         19.37421534	         20.65874155	         36.61363081	         86.51662706	         86.51662706	          0.05000004	          0.05000027	          0.05000011	          0.05918451	          0.05000121	          0.05000029	          0.17244421	          0.06938798	          0.37750998	          0.05000008	          0.05000014	          0.15048760	          0.15562672	          0.15500472	          0.15165490	          0.11926380	          0.05000006	          0.05917078	          0.09585857	          0.05000028	          0.05000307	          0.10040444	          0.05918743	          0.05877224	          0.15037356	          0.05003228	          0.05000132	          0.05000004	          0.06849232	          0.06886238	          0.05804410	          0.06575859	          0.05364757	          0.06384707	          0.05000016	          0.05000005	          0.05000011	          0.44409549	          0.26024412	          0.15197529	          0.32336854	          0.41337003	          0.26812549	          0.07517198	          0.09019594	          0.10695855	          0.29120860	          0.10905711	          0.07841916	          0.38824234	          0.25230039	          0.13413948	          0.05000020	          0.05000004	          0.05000003	          0.09087018	          0.13577293	          0.05000019	          0.05000004	          0.05000006	          0.05000016	          0.05000009	          0.56620467	          0.05000041	          0.05000019	          0.05000104	          0.05000036	          0.05000020	          0.50512069	          0.71884222	          0.05000008	          0.05000036	          0.05918810	          0.34121466	          0.05000010	          0.05000010	          0.05000010	          0.33528459	          0.45023032	          0.31269096	          0.32759682	          0.52978371	          0.51257476	          0.05000000	          0.05000009	          0.11061561	          0.05000002	          0.05000000	          0.06109777	          0.05000000	          0.05000000	          0.05000000	
          0.56231034	         -2.92938087	          2.13506876	         -5.39031533	          0.75058177	          0.91152818	          0.00400476	         30.16715026	          3.28622729	         -2.69076863	        -18.34408113	         -0.78807367	          7.25884388	        -11.89676271	         -7.07826765	          5.99092623	         -1.56220129	         -2.72795475	          9.08440744	          4.35224929	         22.78343016	         -3.25472687	         -1.06751508	          1.92214226	         -8.86439333	        -13.48804073	          5.13664512	          7.44809142	        -13.62119613	         19.37322754	         20.26432101	         37.91882783	         86.51662706	         86.51662706	          0.07443119	          0.05000013	          0.05000045	          0.05000006	          0.05000010	          0.05000033	          0.16414418	          0.05918837	          0.35659282	          0.05000004	          0.05000015	          0.13317289	          0.19177968	          0.13094306	          0.18750186	          0.14692487	          0.05000049	          0.05005175	          0.09569053	          0.05918886	          0.09107834	          0.11148393	          0.05000003	          0.05000002	          0.23333885	          0.05000016	          0.05000006	          0.05000003	          0.12702348	          0.11592408	          0.10769726	          0.05918806	          0.05918805	          0.05918807	          0.05000005	          0.05000009	          0.05000007	          0.48586730	          0.31109484	          0.15775903	          0.33442337	          0.41724493	          0.23621369	          0.06350264	          0.07619436	          0.09035482	          0.24600298	          0.09212760	          0.06624574	          0.32797349	          0.21313448	          0.11331631	          0.05000026	          0.05000004	          0.05000003	          0.07676392	          0.11469621	          0.11957592	          0.05000023	          0.05000010	          0.05000030	          0.05000021	          0.52696174	          0.07144276	          0.05000014	          0.05000046	          0.05000027	          0.05000021	          0.42670816	          0.68651195	          0.05000002	          0.05000008	          0.05000004	          0.31549332	          0.08198000	          0.07726091	          0.05311675	          0.28323660	          0.38033870	          0.26415030	          0.31273045	          0.47728093	          0.48770684	          0.05000000	          0.05918812	          0.11320070	          0.05000002	          0.05000000	          0.05161325	          0.05000000	          0.05000000	          0.05000000	
          0.57333603	         -2.92461109	          2.30991292	         -5.68748044	          0.76831676	          0.91046598	          0.00362559	         29.63664438	          3.75486950	         -2.59785960	        -18.09137589	         -1.17656413	          7.13239511	        -11.98587496	         -9.25425440	          5.33908396	         -2.52879805	         -3.07880058	          9.98732854	          4.63616056	         23.26160115	         -3.06452238	         -1.33134609	          2.05518015	         -9.81489518	        -13.45687321	          5.00425477	          7.10113794	        -13.56075482	         19.28213221	         19.86424220	         39.25089982	         86.51662706	         86.51662706	          0.06287686	          0.05000006	          0.05000003	          0.05000020	          0.05000013	          0.05000006	          0.13866322	          0.05000035	          0.30323093	          0.05918805	          0.05000064	          0.11249997	          0.17794556	          0.38446522	          0.24218583	          0.13996452	          0.05000002	          0.05001844	          0.10103406	          0.05000096	          0.11237554	          0.17065471	          0.05000018	          0.05000077	          0.55813213	          0.16750947	          0.12765919	          0.07006456	          0.18938700	          0.21758660	          0.16543858	          0.05000000	          0.05000000	          0.05000000	          0.05000000	          0.05149170	          0.05036896	          0.56457186	          0.27111830	          0.16880433	          0.61639234	          0.48056670	          0.34171931	          0.05364480	          0.06436630	          0.07632857	          0.20781466	          0.07782616	          0.05596208	          0.27706046	          0.18004850	          0.09572563	          0.05000032	          0.05000003	          0.05000003	          0.06484746	          0.09689134	          0.18473217	          0.20087500	          0.06621789	          0.05000105	          0.05000022	          0.46352788	          0.11634857	          0.05000029	          0.05000032	          0.05000019	          0.05000019	          0.36046801	          0.62411993	          0.05000006	          0.05000074	          0.05918806	          0.26651766	          0.16826649	          0.17846132	          0.15878053	          0.23926829	          0.32129672	          0.22314486	          0.27670155	          0.40319016	          0.41199768	          0.05000000	          0.05000005	          0.09562798	          0.05000001	          0.05000000	          0.05000002	          0.06115632	          0.07006456	          0.05000000	
          0.58436172	         -2.91629155	          2.48613489	         -5.96177777	          0.78633371	          0.90937502	          0.00325770	         29.00492369	          4.14481905	         -2.41891527	        -17.78593173	         -1.56074129	          6.98872414	        -12.59911711	        -11.49683499	          4.68599255	         -3.68130827	         -3.43999866	         10.83940295	          4.90848549	         23.47076752	         -2.85472498	         -1.59490084	          2.17649009	        -10.76381610	        -13.45003746	          5.13614513	          6.65674416	        -13.51050908	         19.14935723	         19.44464222	         40.62591203	         86.51662706	         86.51662706	          0.33080134	          0.05000002	          0.30144021	          0.05000002	          0.05000002	          0.05000005	          0.13559519	          0.05000001	          0.25615880	          0.05000000	          0.05000005	          0.09503606	          0.31857603	          0.32478276	          0.26325090	          0.19547467	          0.05000007	          0.06617235	          0.08535008	          0.05000005	          0.16919157	          0.17814947	          0.05000008	          0.05000003	          0.47149035	          0.14150610	          0.11909894	          0.05918808	          0.16516838	          0.18380963	          0.13975691	          0.05918810	          0.05918811	          0.05918808	          0.05918804	          0.05918808	          0.05918806	          0.47693040	          0.30524996	          0.14259998	          0.52070681	          0.47335208	          0.28867243	          0.05000000	          0.05437440	          0.06447968	          0.31875885	          0.06574480	          0.05000010	          0.23405096	          0.15209863	          0.08086564	          0.05000054	          0.05000013	          0.05000013	          0.05478085	          0.08185041	          0.20308695	          0.31682472	          0.05918885	          0.05918863	          0.10755584	          0.50311877	          0.09828737	          0.05000700	          0.05001547	          0.05003491	          0.05918728	          0.30451067	          0.56370185	          0.05918802	          0.05000044	          0.05000002	          0.22514472	          0.14214563	          0.15075786	          0.13413222	          0.20212541	          0.27142014	          0.18850490	          0.23374773	          0.34060084	          0.34804113	          0.05000000	          0.05000006	          0.13131830	          0.05000001	          0.05000000	          0.05000000	          0.07247608	          0.05918807	          0.05000008	
